<svg width="56" height="56" viewBox="0 0 56 56" fill="none" xmlns="http://www.w3.org/2000/svg">
<g clip-path="url(#clip0_196_518)">
<path d="M55.9894 27.3831C55.8372 18.0206 50.6169 8.90486 42.5406 4.10461C36.1777 0.141739 28.1399 -0.924886 20.9001 0.903864C10.0038 3.64699 1.31677 13.5152 0.212521 24.7625C-1.15948 35.385 4.21302 46.4327 13.3944 51.8805C22.3859 57.519 34.6158 57.2906 43.4069 51.3555C51.3318 46.2122 56.2467 36.8305 55.9807 27.391L55.9894 27.3831ZM29.5486 51.8437C16.8235 53.1011 4.51752 42.3194 4.17365 29.5557C3.21115 19.1931 10.0405 8.94424 19.7941 5.51511C33.4721 0.0288637 50.2739 10.1631 51.6835 24.8325C53.8938 38.0135 42.9213 51.4325 29.5486 51.8437ZM21.1749 26.5825L39.5761 11.5325L29.6327 26.6201C26.8134 26.6201 23.9941 26.621 21.1749 26.5825ZM26.3488 29.365L34.8065 29.4035L16.4053 44.4911L26.3488 29.365Z" fill="#010101"/>
</g>
<defs>
<clipPath id="clip0_196_518">
<rect width="56" height="56" fill="white"/>
</clipPath>
</defs>
</svg>
