<svg width="58" height="56" viewBox="0 0 58 56" fill="none" xmlns="http://www.w3.org/2000/svg">
<path fill-rule="evenodd" clip-rule="evenodd" d="M33.5015 0.928955C33.1062 0.928955 32.7392 1.01391 32.4003 1.12717C33.1203 1.60855 33.5157 2.24568 33.7133 2.96776C33.7275 3.06687 33.7557 3.13766 33.7698 3.23676C33.784 3.32172 33.798 3.40667 33.798 3.49162C33.8545 4.73755 33.4733 4.89329 33.2051 5.62953C32.7956 6.57814 32.9086 7.59754 33.4027 8.41873C33.4451 8.51783 33.5015 8.6311 33.5721 8.73021C33.0356 5.14814 36.0146 4.61013 36.5652 3.49162C36.6075 2.51469 35.8028 1.86341 35.1675 1.41034C34.5604 1.04222 34.0098 0.928955 33.5015 0.928955ZM37.9911 1.73598C37.9346 2.06162 37.977 1.97667 37.9629 2.14657C37.9488 2.25984 37.9488 2.40143 37.9347 2.51469C37.9065 2.62796 37.8782 2.74122 37.8359 2.85449C37.8076 2.96776 37.7653 3.08103 37.7229 3.19429C37.6664 3.30756 37.6241 3.40667 37.5676 3.51993C37.5253 3.57659 37.497 3.6332 37.4547 3.68983C37.4265 3.73231 37.3982 3.77478 37.37 3.81726C37.2994 3.91637 37.2288 4.01548 37.1582 4.10042C37.0735 4.18538 37.0029 4.28448 36.9041 4.35528V4.36945C36.8194 4.44025 36.7346 4.5252 36.6358 4.59599C36.3393 4.82252 36.0005 4.99242 35.6899 5.2048C35.5911 5.27559 35.4922 5.33222 35.4075 5.41717C35.3087 5.48796 35.224 5.55875 35.1393 5.6437C35.0405 5.72865 34.9699 5.81361 34.8852 5.91272C34.8146 5.99767 34.7299 6.09677 34.6734 6.19588C34.6028 6.29499 34.5322 6.3941 34.4757 6.49321C34.4192 6.60647 34.3769 6.70558 34.3204 6.81885C34.2781 6.93211 34.2357 7.03122 34.2075 7.14449C34.1651 7.27191 34.1369 7.38518 34.1087 7.49845C34.0945 7.55511 34.0945 7.62587 34.0804 7.68251C34.0663 7.73916 34.0663 7.79577 34.0522 7.85241C34.0522 7.96567 34.0381 8.0931 34.0381 8.20636C34.0381 8.29132 34.0381 8.37627 34.0522 8.46122C34.0522 8.57448 34.0664 8.68775 34.0946 8.81517C34.1087 8.92844 34.1369 9.04171 34.1652 9.15498C34.2075 9.26824 34.2358 9.38151 34.2781 9.49477C34.3063 9.56557 34.3487 9.63636 34.377 9.69299L31.1298 8.4329C30.5792 8.27716 30.0427 8.13558 29.4921 8.00815C29.1956 7.93736 28.8991 7.86657 28.6026 7.79577C27.7555 7.62587 26.8943 7.49845 26.0331 7.4135C26.0049 7.4135 25.9908 7.39932 25.9625 7.39932C25.1154 7.31437 24.2825 7.2719 23.4354 7.2719C22.8142 7.2719 22.193 7.30019 21.5859 7.34269C20.7247 7.39935 19.8635 7.51259 19.0023 7.65417C18.7905 7.68247 18.5787 7.72497 18.367 7.76744C17.9293 7.85239 17.5058 7.9515 17.0963 8.05061C16.8846 8.10726 16.6728 8.16388 16.461 8.22051C16.2492 8.30545 16.0516 8.40457 15.8539 8.48952C15.6986 8.56031 15.5433 8.6311 15.388 8.70189C15.3598 8.71607 15.3315 8.71607 15.3174 8.73019C15.1763 8.80098 15.0492 8.85761 14.9221 8.9284C14.8798 8.94258 14.8515 8.9567 14.8233 8.97088C14.668 9.04167 14.5127 9.12662 14.3856 9.19741C14.2868 9.23989 14.188 9.29652 14.1033 9.339C14.0609 9.36729 14.0045 9.39565 13.9762 9.40979C13.8492 9.48058 13.7221 9.55137 13.6091 9.62217C13.4821 9.69296 13.3691 9.76374 13.2703 9.83453C13.1715 9.90533 13.0727 9.96196 12.9879 10.0327C12.9738 10.0469 12.9597 10.0469 12.9456 10.061C12.8609 10.1177 12.7621 10.1885 12.6773 10.2593C12.6773 10.2593 12.6632 10.2734 12.6491 10.2876C12.5785 10.3442 12.5079 10.4008 12.4374 10.4575C12.4091 10.4716 12.3809 10.4999 12.3527 10.5141C12.2821 10.5708 12.2115 10.6415 12.1409 10.6982C12.1267 10.7265 12.0985 10.7407 12.0844 10.7548C11.9997 10.8398 11.915 10.9106 11.8303 10.9955C11.8161 10.9955 11.8161 11.0097 11.802 11.0238C11.7173 11.0946 11.6326 11.1796 11.5479 11.2645C11.5338 11.2787 11.5338 11.2928 11.5197 11.2928C11.4491 11.3636 11.3785 11.4344 11.3079 11.5193C11.2797 11.5476 11.2373 11.576 11.2091 11.6043C11.1385 11.6892 11.0538 11.7742 10.9691 11.8591C10.955 11.8874 10.9267 11.9016 10.9126 11.9299C10.7997 12.0432 10.7008 12.1565 10.5879 12.2697C10.5737 12.2839 10.5597 12.298 10.5455 12.3122C10.3196 12.5529 10.0796 12.7936 9.8255 13.006C9.57138 13.2325 9.30313 13.4449 9.03489 13.6289C8.75252 13.8272 8.48428 13.997 8.1878 14.1669C7.90543 14.3227 7.60895 14.4643 7.29835 14.5917C7.00187 14.7191 6.69127 14.8324 6.38067 14.9315C5.78771 15.0589 5.18063 15.2996 4.65826 15.3421C4.54531 15.3421 4.41825 15.3704 4.3053 15.3846C4.17824 15.4129 4.0653 15.4412 3.95235 15.4695C3.83941 15.512 3.72646 15.5545 3.61351 15.5969C3.50057 15.6394 3.38763 15.696 3.27468 15.7527C3.17585 15.8235 3.06291 15.8801 2.96408 15.9509C2.86525 16.0217 2.76642 16.1066 2.68171 16.1916C2.58289 16.2624 2.48406 16.3615 2.39935 16.4464C2.31464 16.5456 2.22993 16.6305 2.15934 16.7296C2.08875 16.8429 2.00405 16.942 1.94757 17.0553C1.87698 17.1544 1.80639 17.2676 1.74992 17.3809C1.69342 17.5083 1.63697 17.6216 1.59462 17.749C1.55226 17.8623 1.50991 17.9897 1.46755 18.1171C1.43934 18.2304 1.41106 18.3437 1.39696 18.4569C1.39696 18.4711 1.38282 18.4852 1.38282 18.4994C1.35461 18.6268 1.35461 18.7967 1.34047 18.8817C1.32633 18.9808 1.31226 19.0657 1.31226 19.1648C1.31226 19.2215 1.31226 19.2923 1.3264 19.3489C1.34054 19.448 1.35461 19.533 1.38289 19.6179C1.41111 19.7029 1.43939 19.7878 1.48171 19.8728V19.8869C1.52407 19.9719 1.58054 20.0568 1.63701 20.1418C1.69351 20.2267 1.74996 20.3117 1.82055 20.3967C1.89114 20.4674 1.97585 20.5524 2.06056 20.6232C2.14527 20.7081 2.22998 20.7789 2.3288 20.8497C2.66764 21.147 2.75235 21.2461 3.19001 21.4727C3.2606 21.5152 3.3312 21.5435 3.41591 21.5859C3.43005 21.5859 3.44412 21.6001 3.45826 21.6001C3.45826 21.6284 3.45826 21.6426 3.4724 21.6709C3.48654 21.7842 3.51476 21.8974 3.54299 22.0107C3.57121 22.1381 3.61359 22.2514 3.65594 22.3505C3.6983 22.4355 3.72653 22.5204 3.76889 22.6054C3.78303 22.6337 3.7971 22.662 3.81124 22.6762C3.86774 22.7894 3.92419 22.8885 3.98065 22.9876C4.05125 23.0868 4.12184 23.1859 4.19243 23.285C4.26302 23.3699 4.34773 23.469 4.43244 23.554C4.51715 23.6389 4.60186 23.7097 4.70069 23.7947C4.70069 23.7947 4.71483 23.8089 4.7289 23.8089C4.81361 23.8797 4.89832 23.9505 4.98303 24.0071C5.08185 24.0779 5.18068 24.1345 5.29363 24.1911C5.39246 24.2478 5.5054 24.3044 5.61834 24.3469C5.70305 24.3894 5.80188 24.4177 5.90071 24.446C5.91485 24.4602 5.92892 24.4602 5.9572 24.4743C6.0137 24.4885 6.08426 24.5026 6.14073 24.5168C6.09838 25.2813 6.08424 26.0034 6.19723 26.2582C6.32429 26.5414 6.94549 25.6777 7.56669 24.6867C7.48198 25.6636 7.42551 26.8104 7.56669 27.1502C7.72199 27.5042 8.56908 26.3998 9.30322 25.1822C19.313 22.8602 28.4474 29.7978 29.4075 39.5954C29.2239 38.0663 27.3462 37.2168 26.485 37.4292C26.0615 38.4769 25.3414 39.8219 24.1838 40.6573C24.2826 39.7228 24.2403 38.7601 24.0426 37.8256C23.732 39.1282 23.1249 40.3458 22.2919 41.3935C20.9507 41.4926 19.6095 40.8413 18.9036 39.8644C18.8471 39.8219 18.833 39.737 18.7906 39.6804C18.7483 39.5812 18.7059 39.4821 18.6777 39.383C18.6353 39.2839 18.6071 39.1848 18.593 39.0857C18.5788 38.9866 18.5788 38.8875 18.5788 38.7742C18.5788 38.7034 18.5788 38.6326 18.5788 38.5618C18.593 38.4627 18.6212 38.3636 18.6494 38.2645C18.6776 38.1654 18.7059 38.0663 18.7482 37.9672C18.8047 37.8681 18.8471 37.769 18.9177 37.6699C19.1577 36.9903 19.1577 36.4381 18.72 36.1124C18.6353 36.0558 18.5506 36.0133 18.4518 35.9709C18.3953 35.9567 18.3247 35.9284 18.2682 35.9142C18.2259 35.9 18.1976 35.8859 18.1553 35.8717C18.0565 35.8434 17.9576 35.8151 17.8588 35.8009C17.76 35.7726 17.6611 35.7585 17.5623 35.7585C17.4635 35.7443 17.3505 35.7302 17.2517 35.7302C17.1811 35.7302 17.1105 35.7443 17.0399 35.7443C16.927 35.7443 16.8282 35.7585 16.7293 35.7868C16.6305 35.801 16.5317 35.8151 16.4329 35.8435C16.334 35.8718 16.2352 35.9001 16.1364 35.9426C16.0376 35.9851 15.9528 36.0275 15.854 36.07C15.7693 36.1125 15.6846 36.1691 15.5858 36.2116C12.2962 38.3637 14.2587 43.404 16.5035 44.8623C15.6564 45.0181 14.7952 45.2022 14.5552 45.3862C14.541 45.4004 14.5269 45.4145 14.5269 45.4145C15.134 45.7826 15.7693 46.0941 16.4329 46.3631C17.3364 46.6604 18.2965 46.9294 18.72 47.0427V47.0569C19.8918 47.2976 21.0778 47.3825 22.2778 47.3117C28.5322 46.8728 33.657 42.1015 34.5888 35.8152C34.6171 35.9426 34.6453 36.0558 34.6735 36.1833C34.7159 36.4381 34.7724 36.7071 34.8006 36.9761V36.9903C34.8288 37.1178 34.843 37.2452 34.8571 37.3585V37.4151C34.8713 37.5425 34.8853 37.67 34.8853 37.7832C34.8995 37.939 34.9135 38.0947 34.9135 38.2505V38.477C34.9135 38.5478 34.9277 38.6327 34.9277 38.7035C34.9277 38.7885 34.9135 38.8734 34.9135 38.9584V39.1566C34.9135 39.2557 34.8994 39.3406 34.8994 39.4398C34.8994 39.4964 34.8994 39.553 34.8852 39.6238C34.8852 39.7229 34.8711 39.822 34.8711 39.9353C34.8569 39.9778 34.8569 40.0202 34.8569 40.0627C34.8428 40.176 34.8287 40.2751 34.8146 40.3884C34.8146 40.4308 34.8146 40.4733 34.8005 40.5158C34.7863 40.6574 34.7581 40.7848 34.744 40.9264V40.9406V40.9548C34.7158 41.0822 34.6875 41.2238 34.6592 41.3512V41.3937C34.631 41.5211 34.6028 41.6485 34.5745 41.7759C34.5745 41.7901 34.5604 41.8184 34.5604 41.8326C34.5322 41.96 34.5039 42.0874 34.4616 42.2149V42.2573C34.4192 42.3989 34.3769 42.5263 34.3486 42.6538C34.3345 42.6679 34.3345 42.6821 34.3345 42.6821C34.2921 42.8237 34.2498 42.9652 34.2074 43.1068C34.1509 43.2484 34.1086 43.3758 34.0521 43.5174C33.9957 43.659 33.9533 43.8006 33.8968 43.928C33.8403 44.0696 33.7839 44.197 33.7274 44.3386H33.7133C33.6568 44.466 33.6003 44.6076 33.5297 44.735C33.5156 44.7775 33.5015 44.8058 33.4874 44.8341C33.4732 44.8483 33.4732 44.8624 33.4592 44.8766C32.5415 46.7314 31.1861 48.3596 29.492 49.6338C29.379 49.7046 29.2661 49.7896 29.1531 49.8745C29.1249 49.9028 29.0825 49.917 29.0543 49.9453C28.9555 50.0161 28.8566 50.0869 28.7437 50.1577L28.786 50.2426H28.8002C28.9978 50.2143 29.1955 50.186 29.3931 50.1577H29.4073C29.7744 50.101 30.1414 50.0302 30.5085 49.9595C30.6073 49.9453 30.7203 49.917 30.8191 49.8887C30.8897 49.8745 30.9462 49.8604 31.0168 49.8462C31.1156 49.832 31.2144 49.8037 31.3132 49.7895C31.3979 49.7612 31.4827 49.7471 31.5674 49.7187C32.9792 49.3789 34.3486 48.9117 35.6616 48.3595C33.4168 51.4319 30.4097 53.9096 26.8943 55.5378C28.5178 55.4246 30.1414 55.1555 31.7085 54.7025C37.3982 53.0176 42.1842 49.1807 45.0502 44.0129C44.4714 47.2835 43.1725 50.3983 41.2524 53.1167C42.6219 52.2106 43.8784 51.1629 45.022 49.9736C48.1844 46.6605 50.2598 42.4555 50.9657 37.939C51.4457 40.176 51.5869 42.4838 51.3751 44.7633C61.5684 30.5059 52.2222 15.7246 48.3115 11.831C48.2973 11.8027 48.2833 11.7885 48.2833 11.7602C48.2691 11.7744 48.2691 11.7744 48.2691 11.7885C48.2691 11.7743 48.2691 11.7743 48.255 11.7602C48.255 11.9301 48.2409 12.1 48.2268 12.2699C48.1844 12.5956 48.1421 12.907 48.0856 13.2185C48.015 13.53 47.9303 13.8415 47.8456 14.153C47.7468 14.4503 47.6338 14.7618 47.5067 15.0591C47.3797 15.3423 47.2385 15.6396 47.0832 15.9228C46.9279 16.1918 46.7585 16.4749 46.575 16.7298C46.3914 16.9988 46.1938 17.2537 45.9961 17.4943C45.7843 17.7492 45.5584 17.9757 45.3325 18.2023C45.1914 18.3297 45.0643 18.443 44.9231 18.5562C44.8102 18.6553 44.7113 18.7403 44.5984 18.8394C44.3443 19.0376 44.0901 19.2217 43.8078 19.3916C43.5395 19.5615 43.2572 19.7314 42.9748 19.8729C42.6783 20.0145 42.3819 20.142 42.0854 20.2694C41.7889 20.3826 41.4783 20.4818 41.1677 20.5667C40.8571 20.6517 40.5324 20.7224 40.2218 20.7791C39.8971 20.8357 39.5723 20.864 39.2617 20.8923C39.0359 20.9065 38.81 20.9206 38.5841 20.9206C38.2594 20.9206 37.9346 20.8923 37.624 20.864C37.2993 20.8357 36.9746 20.7932 36.664 20.7224C36.3393 20.6657 36.0287 20.5808 35.7181 20.4817H35.704C36.0145 20.4534 36.3251 20.4251 36.6358 20.3684C36.9605 20.3118 37.2711 20.241 37.5817 20.1561C37.8923 20.0711 38.2029 19.972 38.4993 19.8587C38.8099 19.7455 39.1064 19.6039 39.3888 19.4623C39.6853 19.3207 39.9535 19.165 40.2359 18.9951C40.5041 18.811 40.7724 18.627 41.0265 18.4287C41.2806 18.2305 41.5206 18.0182 41.7465 17.7916C41.9865 17.5792 42.1983 17.3386 42.4101 17.0979C42.6218 16.843 42.8195 16.5882 43.003 16.3333C43.0313 16.2908 43.0595 16.2342 43.0878 16.1917C43.2289 15.9652 43.3701 15.7387 43.4972 15.5121C43.6525 15.229 43.7937 14.9458 43.9207 14.6485C44.0478 14.3511 44.1607 14.0538 44.2596 13.7423C44.3584 13.445 44.429 13.1335 44.4996 12.822C44.5561 12.4964 44.6125 12.1849 44.6407 11.8734C44.669 11.5478 44.6972 11.2221 44.6972 10.9107C44.6972 10.6841 44.6831 10.4576 44.669 10.2311C44.6408 9.90543 44.5984 9.59394 44.5561 9.28246C44.4996 8.95682 44.429 8.64534 44.3443 8.33385C44.2455 8.03653 44.1466 7.72504 44.0337 7.42772C43.9208 7.13039 43.7796 6.83306 43.6384 6.54989C43.4831 6.26673 43.3278 5.98356 43.1584 5.71456C42.9748 5.44555 42.7913 5.1907 42.5937 4.93584C42.3819 4.69515 42.1701 4.45446 41.9442 4.21377C41.8313 4.10051 41.7042 3.97308 41.5771 3.85982C40.9418 3.36427 40.2783 2.89704 39.6147 2.47229C39.5159 2.41564 39.4312 2.37318 39.3324 2.33071C38.8665 2.03339 38.4288 1.87756 37.9911 1.73598Z" fill="black"/>
</svg>
