<svg width="56" height="56" viewBox="0 0 56 56" fill="none" xmlns="http://www.w3.org/2000/svg">
<g clip-path="url(#clip0_196_523)">
<path d="M0.99636 35.4185C0.336135 33.0141 0 30.5167 0 28.0014C0 16.519 7.21147 6.01989 17.9461 1.87964L19.3536 5.52223C10.1134 9.08687 3.90734 18.1199 3.90734 28.0014C3.90734 30.169 4.19543 32.3155 4.76262 34.3841L0.99636 35.4185Z" fill="black"/>
<path d="M17.7585 1.96908C20.0807 1.06114 22.5293 0.465805 25.0308 0.202881C36.4504 -0.997362 47.6458 5.07715 52.8854 15.3202L49.4099 17.1007C44.8989 8.28382 35.2667 3.05591 25.4393 4.08882C23.2836 4.31539 21.1789 4.82627 19.1809 5.60659L17.7585 1.96908Z" fill="black"/>
<path d="M40.8163 48.36C48.4414 43.4995 52.6885 34.8738 51.8994 25.8541C51.6198 22.6582 50.7328 19.6058 49.2674 16.7879L52.7298 14.9817C54.4339 18.2578 55.4661 21.8005 55.7909 25.5136C56.7077 35.9922 51.7758 46.0094 42.9164 51.6558L40.8163 48.36Z" fill="black"/>
<path d="M19.6899 22.2242C21.9555 22.2242 23.8012 23.4324 24.7496 25.54L24.8246 25.7049L28.6298 24.4127L28.5488 24.2179C27.0753 20.6292 23.6811 18.3987 19.6899 18.3987C16.8838 18.3987 14.6031 19.2982 12.7184 21.1449C10.8458 22.9797 9.89746 25.2882 9.89746 28.0073C9.89746 30.7026 10.8458 32.999 12.7184 34.8339C14.6031 36.6807 16.8838 37.5801 19.6899 37.5801C23.6811 37.5801 27.0753 35.3495 28.5488 31.7639L28.6298 31.5691L24.8185 30.2738L24.7465 30.4447C23.8972 32.5164 22.0066 33.7546 19.6899 33.7546C18.1112 33.7546 16.7788 33.203 15.7224 32.1176C14.6541 31.0173 14.1139 29.6353 14.1139 28.0104C14.1139 26.3734 14.642 25.0183 15.7224 23.8671C16.7758 22.7759 18.1112 22.2242 19.6899 22.2242Z" fill="black"/>
<path d="M43.5237 18.7527L38.1009 32.4746L32.642 18.7527H28.1765L35.8321 37.4813L30.3852 50.6905L34.2896 51.4671L47.7431 18.7527H43.5237Z" fill="black"/>
<path d="M31.084 48.9877L30.1327 51.2902C29.9436 51.7459 29.5114 52.0546 29.0253 52.0756C28.7042 52.0877 28.3801 52.0966 28.053 52.0966C16.8561 52.0907 6.94975 44.1969 4.49491 33.3201L0.683594 34.1805C2.06107 40.2815 5.51826 45.8188 10.4189 49.7763C15.3767 53.7785 21.6217 55.9881 28.011 56.0001C28.02 56.0001 28.0679 56.0001 28.0679 56.0001C28.4431 56.0001 28.8152 55.9911 29.1873 55.9762C31.192 55.8922 32.9837 54.636 33.7489 52.7742L34.9913 49.7642L31.084 48.9877Z" fill="black"/>
</g>
<defs>
<clipPath id="clip0_196_523">
<rect width="56" height="56" fill="white"/>
</clipPath>
</defs>
</svg>
